<?xml version="1.0" encoding="UTF-8"?>
<!DOCTYPE svg PUBLIC "-//W3C//DTD SVG 1.1//EN" "http://www.w3.org/Graphics/SVG/1.1/DTD/svg11.dtd">
<svg xmlns="http://www.w3.org/2000/svg" version="1.1" width="2550px" height="3300px" style="shape-rendering:geometricPrecision; text-rendering:geometricPrecision; image-rendering:optimizeQuality; fill-rule:evenodd; clip-rule:evenodd" xmlns:xlink="http://www.w3.org/1999/xlink">
<g><path style="opacity:1" fill="#6d3d87" d="M 977.5,790.5 C 1019.34,791.401 1061.34,792.568 1103.5,794C 1122.87,794.753 1142.21,796.086 1161.5,798C 1215.63,808.71 1267.96,825.043 1318.5,847C 1382.78,875.948 1431.61,921.448 1465,983.5C 1506.05,1071.58 1499.05,1155.58 1444,1235.5C 1409.38,1285.46 1365.88,1325.63 1313.5,1356C 1297.61,1364.24 1280.94,1370.41 1263.5,1374.5C 1401.7,1623.57 1539.37,1872.9 1676.5,2122.5C 1534.5,2122.83 1392.5,2122.5 1250.5,2121.5C 1104.83,1874.83 959.167,1628.17 813.5,1381.5C 821.48,1376.51 829.813,1372.01 838.5,1368C 899.725,1347.07 957.058,1318.73 1010.5,1283C 1044.33,1259.83 1072.83,1231.33 1096,1197.5C 1135.93,1134.75 1138.6,1070.41 1104,1004.5C 1087.31,975.13 1066.14,949.297 1040.5,927C 985.096,880.957 922.43,847.957 852.5,828C 767.797,803.996 681.464,794.329 593.5,799C 607.763,796.95 622.097,795.617 636.5,795C 750.13,791.024 863.797,789.524 977.5,790.5 Z"/></g>
<g><path style="opacity:1" fill="#289fd9" d="M 977.5,790.5 C 1024.5,790.5 1071.5,790.5 1118.5,790.5C 1160.34,791.401 1202.34,792.568 1244.5,794C 1263.55,794.711 1282.55,796.044 1301.5,798C 1362.07,809.306 1420.07,828.306 1475.5,855C 1538.81,887.642 1584.98,936.475 1614,1001.5C 1643.61,1078.17 1636.94,1151.5 1594,1221.5C 1559.74,1275.09 1515.57,1318.59 1461.5,1352C 1443.62,1362.27 1424.62,1369.77 1404.5,1374.5C 1542.19,1623.89 1679.86,1873.22 1817.5,2122.5C 1770.5,2122.5 1723.5,2122.5 1676.5,2122.5C 1539.37,1872.9 1401.7,1623.57 1263.5,1374.5C 1280.94,1370.41 1297.61,1364.24 1313.5,1356C 1365.88,1325.63 1409.38,1285.46 1444,1235.5C 1499.05,1155.58 1506.05,1071.58 1465,983.5C 1431.61,921.448 1382.78,875.948 1318.5,847C 1267.96,825.043 1215.63,808.71 1161.5,798C 1142.21,796.086 1122.87,794.753 1103.5,794C 1061.34,792.568 1019.34,791.401 977.5,790.5 Z"/></g>
<g><path style="opacity:1" fill="#e22b26" d="M 1118.5,790.5 C 1217.54,789.645 1316.54,791.145 1415.5,795C 1430.23,795.672 1444.9,797.005 1459.5,799C 1513.74,810.306 1566.07,827.306 1616.5,850C 1683.81,881.973 1732.97,931.806 1764,999.5C 1793.01,1071.37 1789.01,1141.37 1752,1209.5C 1717.31,1268.52 1670.81,1316.02 1612.5,1352C 1594.73,1362.55 1575.73,1369.72 1555.5,1373.5C 1692.62,1623.06 1830.28,1872.39 1968.5,2121.5C 1918.17,2122.5 1867.84,2122.83 1817.5,2122.5C 1679.86,1873.22 1542.19,1623.89 1404.5,1374.5C 1424.62,1369.77 1443.62,1362.27 1461.5,1352C 1515.57,1318.59 1559.74,1275.09 1594,1221.5C 1636.94,1151.5 1643.61,1078.17 1614,1001.5C 1584.98,936.475 1538.81,887.642 1475.5,855C 1420.07,828.306 1362.07,809.306 1301.5,798C 1282.55,796.044 1263.55,794.711 1244.5,794C 1202.34,792.568 1160.34,791.401 1118.5,790.5 Z"/></g>
<g><path style="opacity:1" fill="#000000" d="M 855.5,2175.5 C 857.17,2175.75 858.67,2176.42 860,2177.5C 861.399,2180.36 862.399,2183.36 863,2186.5C 868.988,2221.6 874.488,2256.76 879.5,2292C 879.406,2295.89 878.906,2299.72 878,2303.5C 877.047,2305.59 875.714,2305.93 874,2304.5C 868.656,2271.44 862.989,2238.44 857,2205.5C 851.011,2238.43 845.345,2271.43 840,2304.5C 838.951,2305.52 837.784,2305.68 836.5,2305C 834.587,2298.32 834.087,2291.48 835,2284.5C 840,2253.17 845,2221.83 850,2190.5C 850.762,2185.04 852.595,2180.04 855.5,2175.5 Z"/></g>
<g><path style="opacity:1" fill="#000000" d="M 1166.5,2175.5 C 1168.02,2175.51 1169.18,2176.18 1170,2177.5C 1171.2,2180.09 1172.2,2182.76 1173,2185.5C 1178.43,2218.49 1183.76,2251.49 1189,2284.5C 1189.77,2291.22 1189.44,2297.89 1188,2304.5C 1186.67,2305.83 1185.33,2305.83 1184,2304.5C 1178.65,2271.43 1172.99,2238.43 1167,2205.5C 1161.15,2238.46 1155.48,2271.46 1150,2304.5C 1148.29,2305.93 1146.95,2305.59 1146,2303.5C 1144.59,2297.56 1144.26,2291.56 1145,2285.5C 1150.26,2250.02 1156.26,2214.69 1163,2179.5C 1163.69,2177.65 1164.86,2176.32 1166.5,2175.5 Z"/></g>
<g><path style="opacity:1" fill="#000000" d="M 1385.5,2175.5 C 1387.09,2175.63 1388.42,2176.29 1389.5,2177.5C 1391.37,2180.94 1392.54,2184.61 1393,2188.5C 1398.11,2219.48 1403.11,2250.48 1408,2281.5C 1408.74,2289.54 1408.57,2297.54 1407.5,2305.5C 1406.17,2305.5 1404.83,2305.5 1403.5,2305.5C 1398.48,2272.37 1392.81,2239.37 1386.5,2206.5C 1380.51,2239.44 1374.84,2272.44 1369.5,2305.5C 1366.61,2305.78 1365.11,2304.45 1365,2301.5C 1364.33,2295.17 1364.33,2288.83 1365,2282.5C 1370,2251.17 1375,2219.83 1380,2188.5C 1380.78,2183.63 1382.62,2179.3 1385.5,2175.5 Z"/></g>
<g><path style="opacity:1" fill="#000000" d="M 1898.5,2175.5 C 1900.37,2175.86 1901.87,2176.86 1903,2178.5C 1909.74,2213.01 1915.74,2247.68 1921,2282.5C 1921.67,2288.83 1921.67,2295.17 1921,2301.5C 1920.37,2305.6 1918.7,2306.26 1916,2303.5C 1911,2272.83 1906,2242.17 1901,2211.5C 1900.78,2209.62 1900.12,2207.95 1899,2206.5C 1893.07,2239.43 1887.57,2272.43 1882.5,2305.5C 1881.17,2305.5 1879.83,2305.5 1878.5,2305.5C 1876.72,2297.13 1876.56,2288.8 1878,2280.5C 1883.02,2247.04 1888.69,2213.71 1895,2180.5C 1895.7,2178.42 1896.86,2176.75 1898.5,2175.5 Z"/></g>
<g><path style="opacity:1" fill="#000000" d="M 595.5,2181.5 C 608.883,2181.19 622.216,2181.52 635.5,2182.5C 637.909,2186.12 639.409,2190.12 640,2194.5C 643.125,2211.19 643.125,2227.85 640,2244.5C 639.488,2249.04 637.988,2253.2 635.5,2257C 623.838,2257.5 612.171,2257.67 600.5,2257.5C 601.011,2273.58 600.345,2289.58 598.5,2305.5C 595.612,2305.78 594.112,2304.45 594,2301.5C 593.333,2263.17 593.333,2224.83 594,2186.5C 594.352,2184.75 594.852,2183.09 595.5,2181.5 Z M 600.5,2209.5 C 611.505,2209.33 622.505,2209.5 633.5,2210C 636.167,2216.33 636.167,2222.67 633.5,2229C 622.505,2229.5 611.505,2229.67 600.5,2229.5C 600.5,2222.83 600.5,2216.17 600.5,2209.5 Z"/></g>
<g><path style="opacity:1" fill="#000000" d="M 660.5,2181.5 C 675.17,2181.33 689.837,2181.5 704.5,2182C 708.106,2190.99 708.439,2200.16 705.5,2209.5C 700.821,2209.33 696.155,2209.5 691.5,2210C 688.852,2214.41 687.352,2219.24 687,2224.5C 686.667,2248.5 686.333,2272.5 686,2296.5C 685.73,2299.22 685.23,2301.89 684.5,2304.5C 681.682,2305.88 680.182,2304.88 680,2301.5C 679.333,2274.83 679.333,2248.17 680,2221.5C 680.203,2217.58 680.703,2213.75 681.5,2210C 674.253,2209.81 667.087,2209.31 660,2208.5C 657.909,2199.42 658.075,2190.42 660.5,2181.5 Z"/></g>
<g><path style="opacity:1" fill="#000000" d="M 776.5,2181.5 C 788.171,2181.33 799.838,2181.5 811.5,2182C 813.782,2185.51 815.282,2189.35 816,2193.5C 818.628,2206.13 818.962,2218.8 817,2231.5C 816.047,2233.59 814.714,2233.93 813,2232.5C 811.848,2226.23 811.182,2219.9 811,2213.5C 810.691,2212.23 810.191,2211.07 809.5,2210C 798.818,2209.17 788.151,2209.33 777.5,2210.5C 776.54,2216.77 776.207,2223.11 776.5,2229.5C 781.844,2229.33 787.177,2229.5 792.5,2230C 797.239,2231.12 801.072,2233.62 804,2237.5C 807.435,2243.13 810.102,2249.13 812,2255.5C 815.192,2267.49 817.359,2279.65 818.5,2292C 818.406,2295.89 817.906,2299.72 817,2303.5C 816.275,2305.16 815.108,2305.66 813.5,2305C 811.467,2295.84 809.3,2286.68 807,2277.5C 805.551,2272.6 803.551,2267.93 801,2263.5C 799.457,2261.62 797.624,2260.12 795.5,2259C 789.231,2257.74 782.898,2257.24 776.5,2257.5C 776.92,2273.22 776.42,2288.88 775,2304.5C 773.951,2305.52 772.784,2305.68 771.5,2305C 770.751,2303.27 770.251,2301.43 770,2299.5C 769.333,2268.5 769.333,2237.5 770,2206.5C 770.459,2200.08 771.459,2193.75 773,2187.5C 773.926,2185.31 775.093,2183.31 776.5,2181.5 Z"/></g>
<g><path style="opacity:1" fill="#000000" d="M 897.5,2181.5 C 912.837,2181.33 928.17,2181.5 943.5,2182C 945.942,2190.76 946.109,2199.59 944,2208.5C 928.564,2209.82 913.064,2209.82 897.5,2208.5C 894.875,2199.5 894.875,2190.5 897.5,2181.5 Z"/></g>
<g><path style="opacity:1" fill="#000000" d="M 991.5,2181.5 C 1006.91,2180.86 1022.08,2181.53 1037,2183.5C 1039.16,2191.9 1038.99,2200.23 1036.5,2208.5C 1031.87,2209.33 1027.2,2209.83 1022.5,2210C 1019.74,2215.11 1018.24,2220.61 1018,2226.5C 1017.67,2250.5 1017.33,2274.5 1017,2298.5C 1016.69,2300.56 1016.19,2302.56 1015.5,2304.5C 1014.35,2305.73 1013.18,2305.73 1012,2304.5C 1010.87,2290.55 1010.37,2276.55 1010.5,2262.5C 1010.3,2244.78 1010.97,2227.11 1012.5,2209.5C 1005.25,2209.81 998.079,2209.48 991,2208.5C 988.916,2199.44 989.083,2190.44 991.5,2181.5 Z"/></g>
<g><path style="opacity:1" fill="#000000" d="M 1056.5,2181.5 C 1057.68,2181.28 1058.68,2181.61 1059.5,2182.5C 1060.19,2184.44 1060.69,2186.44 1061,2188.5C 1061.67,2225.5 1061.67,2262.5 1061,2299.5C 1060.67,2301.17 1060.33,2302.83 1060,2304.5C 1058.67,2305.83 1057.33,2305.83 1056,2304.5C 1055.67,2302.83 1055.33,2301.17 1055,2299.5C 1054.33,2262.17 1054.33,2224.83 1055,2187.5C 1055.5,2185.48 1056,2183.48 1056.5,2181.5 Z"/></g>
<g><path style="opacity:1" fill="#000000" d="M 1087.5,2181.5 C 1100.91,2180.86 1114.08,2181.53 1127,2183.5C 1129.12,2191.9 1128.95,2200.23 1126.5,2208.5C 1114.51,2209.33 1102.51,2209.83 1090.5,2210C 1088.51,2211.32 1087.35,2213.15 1087,2215.5C 1083.69,2234.17 1083.69,2252.84 1087,2271.5C 1087.45,2273.52 1088.28,2275.35 1089.5,2277C 1094.67,2277.17 1099.83,2277.33 1105,2277.5C 1110.58,2277.47 1115.91,2276.81 1121,2275.5C 1121.79,2269.78 1121.62,2264.11 1120.5,2258.5C 1112.17,2257.83 1103.83,2257.17 1095.5,2256.5C 1092.73,2247.77 1092.9,2239.1 1096,2230.5C 1104.76,2229.35 1113.59,2229.18 1122.5,2230C 1125.98,2237.05 1127.81,2244.55 1128,2252.5C 1129.03,2267.59 1128.36,2282.59 1126,2297.5C 1125.4,2300.31 1124.24,2302.81 1122.5,2305C 1110.5,2305.67 1098.5,2305.67 1086.5,2305C 1084.76,2302.81 1083.6,2300.31 1083,2297.5C 1075.41,2260.75 1075.74,2224.08 1084,2187.5C 1084.93,2185.31 1086.09,2183.31 1087.5,2181.5 Z"/></g>
<g><path style="opacity:1" fill="#000000" d="M 1243.5,2181.5 C 1256.58,2180.86 1269.42,2181.53 1282,2183.5C 1284.16,2191.9 1283.99,2200.23 1281.5,2208.5C 1269.51,2209.33 1257.51,2209.83 1245.5,2210C 1242.82,2214.05 1241.32,2218.55 1241,2223.5C 1239,2237.17 1239,2250.83 1241,2264.5C 1241.55,2268.69 1242.71,2272.69 1244.5,2276.5C 1256.49,2277.33 1268.49,2277.83 1280.5,2278C 1284.08,2286.66 1284.41,2295.5 1281.5,2304.5C 1268.17,2305.83 1254.83,2305.83 1241.5,2304.5C 1240.19,2303.09 1239.36,2301.42 1239,2299.5C 1236.31,2289 1234.64,2278.33 1234,2267.5C 1233.33,2251.83 1233.33,2236.17 1234,2220.5C 1234.59,2211.06 1235.92,2201.73 1238,2192.5C 1238.81,2188.21 1240.64,2184.55 1243.5,2181.5 Z"/></g>
<g><path style="opacity:1" fill="#000000" d="M 1304.5,2181.5 C 1307.59,2181.63 1309.43,2183.29 1310,2186.5C 1319.8,2214.91 1329.8,2243.24 1340,2271.5C 1341.26,2242.86 1341.92,2214.19 1342,2185.5C 1343.67,2180.17 1345.33,2180.17 1347,2185.5C 1347.67,2221.83 1347.67,2258.17 1347,2294.5C 1346.63,2298.29 1345.46,2301.79 1343.5,2305C 1341.89,2305.72 1340.39,2305.55 1339,2304.5C 1328.79,2275.35 1318.29,2246.35 1307.5,2217.5C 1306.67,2244.83 1306.17,2272.16 1306,2299.5C 1305.67,2301.17 1305.33,2302.83 1305,2304.5C 1303.67,2305.83 1302.33,2305.83 1301,2304.5C 1299.37,2268.87 1299.03,2233.21 1300,2197.5C 1300.27,2191.74 1301.77,2186.41 1304.5,2181.5 Z"/></g>
<g><path style="opacity:1" fill="#000000" d="M 1429.5,2181.5 C 1432.89,2181.87 1434.72,2183.87 1435,2187.5C 1440.29,2215.23 1445.79,2242.89 1451.5,2270.5C 1457.19,2242.88 1462.69,2215.22 1468,2187.5C 1468.45,2185.48 1469.28,2183.65 1470.5,2182C 1471.78,2181.32 1472.95,2181.48 1474,2182.5C 1475.83,2186.28 1476.83,2190.28 1477,2194.5C 1477.17,2212.33 1477.33,2230.17 1477.5,2248C 1477.65,2266.9 1477.15,2285.73 1476,2304.5C 1474.82,2305.73 1473.65,2305.73 1472.5,2304.5C 1471.77,2301.89 1471.27,2299.22 1471,2296.5C 1470.67,2272.83 1470.33,2249.17 1470,2225.5C 1465.33,2250.17 1460.67,2274.83 1456,2299.5C 1455.76,2303.92 1453.6,2305.75 1449.5,2305C 1448.28,2303.35 1447.45,2301.52 1447,2299.5C 1442.23,2275.19 1437.56,2250.85 1433,2226.5C 1432.67,2249.5 1432.33,2272.5 1432,2295.5C 1431.54,2298.85 1431.04,2302.19 1430.5,2305.5C 1427.61,2305.78 1426.11,2304.45 1426,2301.5C 1425.33,2265.5 1425.33,2229.5 1426,2193.5C 1426.27,2189.2 1427.43,2185.2 1429.5,2181.5 Z"/></g>
<g><path style="opacity:1" fill="#000000" d="M 1528.5,2181.5 C 1541.85,2181.17 1555.18,2181.5 1568.5,2182.5C 1571.15,2191.35 1571.15,2200.18 1568.5,2209C 1555.83,2209.33 1543.17,2209.67 1530.5,2210C 1528.95,2213.1 1528.29,2216.43 1528.5,2220C 1528.55,2222.89 1528.88,2225.72 1529.5,2228.5C 1541.49,2229.33 1553.49,2229.83 1565.5,2230C 1568.79,2234.96 1570.62,2240.46 1571,2246.5C 1573,2260.83 1573,2275.17 1571,2289.5C 1570.58,2294.84 1569.08,2299.84 1566.5,2304.5C 1552.85,2305.67 1539.18,2305.83 1525.5,2305C 1524.81,2303.93 1524.31,2302.77 1524,2301.5C 1522.98,2293.69 1523.48,2286.03 1525.5,2278.5C 1538.5,2277.83 1551.5,2277.17 1564.5,2276.5C 1565.12,2273.72 1565.45,2270.89 1565.5,2268C 1565.71,2264.43 1565.05,2261.1 1563.5,2258C 1551.49,2257.83 1539.49,2257.33 1527.5,2256.5C 1524.08,2249.24 1522.25,2241.57 1522,2233.5C 1521,2219.42 1521.67,2205.42 1524,2191.5C 1524.84,2187.81 1526.34,2184.48 1528.5,2181.5 Z"/></g>
<g><path style="opacity:1" fill="#000000" d="M 1590.5,2181.5 C 1605.84,2181.33 1621.17,2181.5 1636.5,2182C 1638.05,2186.31 1638.71,2190.81 1638.5,2195.5C 1638.56,2199.92 1638.06,2204.25 1637,2208.5C 1621.56,2209.82 1606.06,2209.82 1590.5,2208.5C 1587.88,2199.5 1587.88,2190.5 1590.5,2181.5 Z"/></g>
<g><path style="opacity:1" fill="#000000" d="M 1659.5,2181.5 C 1660.82,2181.33 1661.99,2181.66 1663,2182.5C 1669.51,2211.71 1675.51,2241.05 1681,2270.5C 1687.09,2242.66 1692.75,2214.66 1698,2186.5C 1698.55,2182.57 1700.55,2181.24 1704,2182.5C 1705.74,2186.65 1706.74,2190.98 1707,2195.5C 1707.17,2213 1707.33,2230.5 1707.5,2248C 1707.64,2266.88 1707.14,2285.72 1706,2304.5C 1704.82,2305.73 1703.65,2305.73 1702.5,2304.5C 1701.81,2302.56 1701.31,2300.56 1701,2298.5C 1700.67,2274.17 1700.33,2249.83 1700,2225.5C 1695.26,2251.22 1690.26,2276.88 1685,2302.5C 1681.39,2306.76 1678.72,2306.1 1677,2300.5C 1672.13,2274.47 1667.13,2248.47 1662,2222.5C 1661.81,2250.2 1661.31,2277.86 1660.5,2305.5C 1659.17,2305.5 1657.83,2305.5 1656.5,2305.5C 1655.35,2267.86 1655.19,2230.2 1656,2192.5C 1656.41,2188.51 1657.58,2184.84 1659.5,2181.5 Z"/></g>
<g><path style="opacity:1" fill="#000000" d="M 1726.5,2181.5 C 1739.5,2181.33 1752.5,2181.5 1765.5,2182C 1768.5,2186.34 1770.34,2191.18 1771,2196.5C 1773.13,2212.37 1772.97,2228.21 1770.5,2244C 1773.75,2263.69 1772.92,2283.19 1768,2302.5C 1767.31,2303.03 1766.81,2303.69 1766.5,2304.5C 1754.17,2305.83 1741.83,2305.83 1729.5,2304.5C 1725.84,2295.55 1724.01,2286.22 1724,2276.5C 1723.1,2261.46 1723.44,2246.46 1725,2231.5C 1725.5,2231 1726,2230.5 1726.5,2230C 1739.18,2229.83 1751.85,2229.33 1764.5,2228.5C 1765.75,2222.18 1765.75,2215.85 1764.5,2209.5C 1751.5,2209.5 1738.5,2209.5 1725.5,2209.5C 1722.52,2199.99 1722.86,2190.65 1726.5,2181.5 Z M 1730.5,2257.5 C 1741.51,2257.33 1752.51,2257.5 1763.5,2258C 1765.05,2261.1 1765.71,2264.43 1765.5,2268C 1765.45,2270.89 1765.12,2273.72 1764.5,2276.5C 1753.52,2277.5 1742.52,2277.83 1731.5,2277.5C 1730.62,2270.88 1730.29,2264.21 1730.5,2257.5 Z"/></g>
<g><path style="opacity:1" fill="#000000" d="M 1791.5,2181.5 C 1792.5,2181.41 1793.33,2181.75 1794,2182.5C 1794.33,2183.83 1794.67,2185.17 1795,2186.5C 1795.67,2224.83 1795.67,2263.17 1795,2301.5C 1794.37,2305.6 1792.7,2306.26 1790,2303.5C 1789.67,2301.17 1789.33,2298.83 1789,2296.5C 1788.33,2261.17 1788.33,2225.83 1789,2190.5C 1789.2,2187.28 1790.03,2184.28 1791.5,2181.5 Z"/></g>
<g><path style="opacity:1" fill="#000000" d="M 1814.5,2181.5 C 1816.78,2181.76 1817.94,2183.09 1818,2185.5C 1818.05,2215.87 1818.71,2246.2 1820,2276.5C 1832.76,2277.32 1845.59,2277.82 1858.5,2278C 1860,2282.5 1860.67,2287.16 1860.5,2292C 1860.71,2296.52 1860.04,2300.86 1858.5,2305C 1845.17,2305.67 1831.83,2305.67 1818.5,2305C 1815.29,2299.28 1813.45,2293.11 1813,2286.5C 1811.47,2255.52 1811.14,2224.52 1812,2193.5C 1812.07,2189.28 1812.91,2185.28 1814.5,2181.5 Z"/></g>
<g><path style="opacity:1" fill="#000000" d="M 1942.5,2181.5 C 1945.29,2181.45 1947.13,2182.79 1948,2185.5C 1957.8,2213.91 1967.8,2242.24 1978,2270.5C 1979.32,2242.98 1979.99,2215.31 1980,2187.5C 1980.12,2184.99 1981.12,2182.99 1983,2181.5C 1983.95,2181.91 1984.61,2182.57 1985,2183.5C 1986.63,2218.46 1986.97,2253.46 1986,2288.5C 1985.78,2294.05 1984.61,2299.38 1982.5,2304.5C 1980.39,2305.85 1978.56,2305.52 1977,2303.5C 1966.67,2274.5 1956.33,2245.5 1946,2216.5C 1944.72,2244.8 1944.05,2273.13 1944,2301.5C 1943.89,2304.45 1942.39,2305.78 1939.5,2305.5C 1938.92,2301.86 1938.42,2298.19 1938,2294.5C 1937.33,2264.83 1937.33,2235.17 1938,2205.5C 1937.89,2197.14 1939.39,2189.14 1942.5,2181.5 Z"/></g>
<g><path style="opacity:1" fill="#000000" d="M 898.5,2229.5 C 913.182,2229.17 927.848,2229.5 942.5,2230.5C 945.167,2239.17 945.167,2247.83 942.5,2256.5C 929.183,2257.5 915.85,2257.83 902.5,2257.5C 902.92,2273.22 902.42,2288.88 901,2304.5C 899.667,2305.83 898.333,2305.83 897,2304.5C 896.667,2302.83 896.333,2301.17 896,2299.5C 895.333,2277.83 895.333,2256.17 896,2234.5C 896.366,2232.55 897.199,2230.88 898.5,2229.5 Z"/></g>
<g><path style="opacity:1" fill="#000000" d="M 1245.5,2229.5 C 1256.51,2229.33 1267.51,2229.5 1278.5,2230C 1280.94,2238.76 1281.11,2247.59 1279,2256.5C 1267.91,2257.65 1256.74,2257.82 1245.5,2257C 1242.89,2247.86 1242.89,2238.7 1245.5,2229.5 Z"/></g>
<g><path style="opacity:1" fill="#000000" d="M 1591.5,2229.5 C 1606.18,2229.17 1620.85,2229.5 1635.5,2230.5C 1638.14,2239.36 1638.14,2248.19 1635.5,2257C 1622.17,2257.5 1608.84,2257.67 1595.5,2257.5C 1595.21,2263.89 1595.54,2270.23 1596.5,2276.5C 1609.82,2277.33 1623.15,2277.83 1636.5,2278C 1637.19,2279.07 1637.69,2280.23 1638,2281.5C 1638.67,2288.17 1638.67,2294.83 1638,2301.5C 1637.69,2302.77 1637.19,2303.93 1636.5,2305C 1622.26,2305.82 1608.09,2305.66 1594,2304.5C 1590.94,2296.47 1589.27,2288.13 1589,2279.5C 1588.33,2264.83 1588.33,2250.17 1589,2235.5C 1589.24,2233.19 1590.07,2231.19 1591.5,2229.5 Z"/></g>
<g><path style="opacity:1" fill="#000000" d="M 720.5,2273.5 C 722.411,2273.57 723.578,2274.57 724,2276.5C 726.135,2287.22 725.968,2297.89 723.5,2308.5C 721.653,2309.83 720.153,2309.5 719,2307.5C 717.487,2298.55 717.154,2289.55 718,2280.5C 718.379,2277.97 719.213,2275.64 720.5,2273.5 Z"/></g>
<g><path style="opacity:1" fill="#000000" d="M 1236.5,2340.5 C 1240.79,2340.03 1244.79,2340.87 1248.5,2343C 1249.63,2346.74 1249.79,2350.58 1249,2354.5C 1245.53,2351.08 1241.86,2350.75 1238,2353.5C 1236.65,2357.36 1236.15,2361.36 1236.5,2365.5C 1240.83,2365.5 1245.17,2365.5 1249.5,2365.5C 1249.5,2368.83 1249.5,2372.17 1249.5,2375.5C 1245.5,2375.5 1241.5,2375.5 1237.5,2375.5C 1237.5,2388.17 1237.5,2400.83 1237.5,2413.5C 1234.5,2413.5 1231.5,2413.5 1228.5,2413.5C 1228.5,2400.83 1228.5,2388.17 1228.5,2375.5C 1226.5,2375.5 1224.5,2375.5 1222.5,2375.5C 1222.5,2372.17 1222.5,2368.83 1222.5,2365.5C 1224.5,2365.5 1226.5,2365.5 1228.5,2365.5C 1228.33,2360.16 1228.5,2354.82 1229,2349.5C 1230.64,2345.7 1233.14,2342.7 1236.5,2340.5 Z"/></g>
<g><path style="opacity:1" fill="#000000" d="M 1371.5,2341.5 C 1384.94,2341.79 1389.77,2348.45 1386,2361.5C 1382.46,2354.14 1376.96,2351.98 1369.5,2355C 1367.95,2356.21 1366.78,2357.71 1366,2359.5C 1364.03,2364.69 1363.37,2370.03 1364,2375.5C 1368.46,2368.68 1374.29,2367.18 1381.5,2371C 1387.04,2376.47 1389.37,2383.14 1388.5,2391C 1388.84,2397.14 1387.67,2402.98 1385,2408.5C 1380.12,2414.22 1373.95,2416.05 1366.5,2414C 1360.07,2409.99 1356.57,2404.16 1356,2396.5C 1353.69,2381.59 1354.69,2366.93 1359,2352.5C 1361.54,2346.79 1365.7,2343.12 1371.5,2341.5 Z M 1370.5,2378.5 C 1378.49,2379.35 1381.82,2383.85 1380.5,2392C 1380.78,2395.79 1379.94,2399.29 1378,2402.5C 1368.6,2406.3 1363.76,2402.97 1363.5,2392.5C 1363.22,2386.38 1365.56,2381.72 1370.5,2378.5 Z"/></g>
<g><path style="opacity:1" fill="#000000" d="M 1438.5,2341.5 C 1450.34,2342.17 1456.84,2348.51 1458,2360.5C 1460.14,2373.56 1459.81,2386.56 1457,2399.5C 1451.65,2415.58 1441.99,2418.91 1428,2409.5C 1427.33,2404.83 1427.33,2400.17 1428,2395.5C 1430.17,2399 1433,2401.83 1436.5,2404C 1442.85,2405.24 1447.01,2402.74 1449,2396.5C 1450.29,2391.89 1450.62,2387.22 1450,2382.5C 1448.83,2385 1447,2386.83 1444.5,2388C 1437.16,2390.24 1431.66,2388.07 1428,2381.5C 1424.15,2369.87 1424.82,2358.54 1430,2347.5C 1432.32,2344.6 1435.16,2342.6 1438.5,2341.5 Z M 1438.5,2353.5 C 1446.99,2353.16 1450.99,2357.33 1450.5,2366C 1450.83,2372.86 1447.83,2377.36 1441.5,2379.5C 1437.56,2378.73 1435.06,2376.4 1434,2372.5C 1433.33,2368.17 1433.33,2363.83 1434,2359.5C 1434.8,2356.85 1436.3,2354.85 1438.5,2353.5 Z"/></g>
<g><path style="opacity:1" fill="#000000" d="M 1285.5,2343.5 C 1295.5,2343.5 1305.5,2343.5 1315.5,2343.5C 1315.67,2347.51 1315.5,2351.51 1315,2355.5C 1310.88,2361.29 1306.38,2366.79 1301.5,2372C 1309.84,2372.67 1314.67,2377.17 1316,2385.5C 1317.45,2393.68 1316.12,2401.34 1312,2408.5C 1305.4,2415.04 1297.9,2416.21 1289.5,2412C 1286.02,2409.22 1284.69,2405.55 1285.5,2401C 1285.67,2398.5 1285.83,2396 1286,2393.5C 1288.92,2402.37 1294.75,2405.54 1303.5,2403C 1307.74,2397.35 1308.58,2391.18 1306,2384.5C 1301.04,2380 1295.54,2379.34 1289.5,2382.5C 1288.35,2379.89 1288.18,2377.23 1289,2374.5C 1293.83,2368.33 1298.67,2362.17 1303.5,2356C 1297.51,2355.5 1291.51,2355.33 1285.5,2355.5C 1285.5,2351.5 1285.5,2347.5 1285.5,2343.5 Z"/></g>
<g><path style="opacity:1" fill="#000000" d="M 1107.5,2353.5 C 1111.26,2353.07 1114.76,2353.74 1118,2355.5C 1118.67,2359.83 1118.67,2364.17 1118,2368.5C 1113.29,2364.23 1108.96,2364.56 1105,2369.5C 1104.18,2371.79 1103.51,2374.12 1103,2376.5C 1102.5,2388.83 1102.33,2401.16 1102.5,2413.5C 1099.5,2413.5 1096.5,2413.5 1093.5,2413.5C 1093.5,2393.83 1093.5,2374.17 1093.5,2354.5C 1096.5,2354.5 1099.5,2354.5 1102.5,2354.5C 1102.34,2356.2 1102.51,2357.87 1103,2359.5C 1104.28,2357.25 1105.78,2355.25 1107.5,2353.5 Z"/></g>
<g><path style="opacity:1" fill="#000000" d="M 1165.5,2353.5 C 1169.85,2353.33 1174.18,2353.5 1178.5,2354C 1181.38,2355.25 1183.21,2357.42 1184,2360.5C 1185.46,2378.1 1185.96,2395.76 1185.5,2413.5C 1182.83,2413.5 1180.17,2413.5 1177.5,2413.5C 1177.66,2411.14 1177.5,2408.81 1177,2406.5C 1173.87,2413.15 1168.7,2415.65 1161.5,2414C 1155.15,2408.61 1152.98,2401.77 1155,2393.5C 1155.25,2390.82 1156.25,2388.49 1158,2386.5C 1162.93,2383.29 1168.09,2380.45 1173.5,2378C 1177.58,2374.86 1178.41,2371.03 1176,2366.5C 1171.78,2363.84 1167.61,2364 1163.5,2367C 1161.32,2369.02 1159.32,2371.18 1157.5,2373.5C 1156.34,2369.54 1156.17,2365.54 1157,2361.5C 1159.58,2358.48 1162.41,2355.81 1165.5,2353.5 Z M 1175.5,2385.5 C 1178.27,2392.77 1176.6,2399.27 1170.5,2405C 1167.69,2405.92 1165.53,2405.09 1164,2402.5C 1162.63,2397.56 1163.8,2393.4 1167.5,2390C 1170.39,2388.73 1173.06,2387.23 1175.5,2385.5 Z"/></g>
<g><path style="opacity:1" fill="#000000" d="M 1562.5,2353.5 C 1578.43,2351.21 1584.6,2357.87 1581,2373.5C 1577.91,2366.72 1572.75,2363.89 1565.5,2365C 1560.84,2367.81 1558.34,2371.97 1558,2377.5C 1556.46,2386.66 1558.3,2394.99 1563.5,2402.5C 1569.53,2405.74 1574.36,2404.41 1578,2398.5C 1579,2396.5 1580,2394.5 1581,2392.5C 1581.67,2397.17 1581.67,2401.83 1581,2406.5C 1575.32,2415 1567.82,2416.84 1558.5,2412C 1553.38,2406.92 1550.55,2400.76 1550,2393.5C 1549.16,2384.78 1549.49,2376.11 1551,2367.5C 1552.76,2360.9 1556.59,2356.24 1562.5,2353.5 Z"/></g>
<g><path style="opacity:1" fill="#000000" d="M 1632.5,2353.5 C 1645.77,2350.71 1654.27,2355.71 1658,2368.5C 1660.17,2379.58 1659.84,2390.58 1657,2401.5C 1651.5,2414.33 1642.33,2417.83 1629.5,2412C 1624.96,2407.41 1622.12,2401.91 1621,2395.5C 1620.11,2385.77 1620.44,2376.11 1622,2366.5C 1623.63,2360.55 1627.13,2356.21 1632.5,2353.5 Z M 1636.5,2364.5 C 1641.04,2363.96 1644.87,2365.29 1648,2368.5C 1652.59,2378.82 1652.59,2389.15 1648,2399.5C 1643.05,2405.76 1637.71,2406.09 1632,2400.5C 1628.22,2391.07 1627.56,2381.4 1630,2371.5C 1631.69,2368.64 1633.86,2366.31 1636.5,2364.5 Z"/></g>
<g><path style="opacity:1" fill="#000000" d="M 1715.5,2353.5 C 1724.98,2351.49 1730.81,2355.15 1733,2364.5C 1736.67,2353.1 1743.67,2350.43 1754,2356.5C 1756.48,2360.12 1757.81,2364.12 1758,2368.5C 1758.5,2383.5 1758.67,2398.5 1758.5,2413.5C 1755.5,2413.5 1752.5,2413.5 1749.5,2413.5C 1749.67,2399.83 1749.5,2386.16 1749,2372.5C 1747.74,2365.51 1744.07,2363.51 1738,2366.5C 1736.07,2369.95 1734.74,2373.61 1734,2377.5C 1733.5,2389.5 1733.33,2401.5 1733.5,2413.5C 1730.5,2413.5 1727.5,2413.5 1724.5,2413.5C 1724.67,2399.5 1724.5,2385.5 1724,2371.5C 1721.57,2363.73 1717.57,2362.73 1712,2368.5C 1711.14,2370.09 1710.47,2371.75 1710,2373.5C 1708.62,2386.79 1708.12,2400.12 1708.5,2413.5C 1705.83,2413.5 1703.17,2413.5 1700.5,2413.5C 1700.5,2393.83 1700.5,2374.17 1700.5,2354.5C 1703.17,2354.5 1705.83,2354.5 1708.5,2354.5C 1708.34,2356.86 1708.5,2359.19 1709,2361.5C 1711,2358.67 1713.17,2356 1715.5,2353.5 Z"/></g>
<g><path style="opacity:1" fill="#000000" d="M 758.5,2354.5 C 761.5,2354.5 764.5,2354.5 767.5,2354.5C 769.881,2369.24 772.715,2383.91 776,2398.5C 778.401,2383.86 780.568,2369.19 782.5,2354.5C 786.167,2354.5 789.833,2354.5 793.5,2354.5C 795.086,2368.86 796.919,2383.19 799,2397.5C 802.507,2383.97 805.507,2370.3 808,2356.5C 809.353,2355.3 811.019,2354.63 813,2354.5C 814.5,2354.83 816,2355.17 817.5,2355.5C 813.271,2374.14 809.105,2392.81 805,2411.5C 801.506,2413.38 797.673,2414.04 793.5,2413.5C 792.089,2399.12 790.256,2384.79 788,2370.5C 785.425,2384.77 783.258,2399.1 781.5,2413.5C 777.833,2413.5 774.167,2413.5 770.5,2413.5C 766.341,2393.86 762.341,2374.2 758.5,2354.5 Z"/></g>
<g><path style="opacity:1" fill="#000000" d="M 851.5,2354.5 C 854.5,2354.5 857.5,2354.5 860.5,2354.5C 863.138,2369.19 865.971,2383.86 869,2398.5C 871.587,2383.89 873.754,2369.22 875.5,2354.5C 879.167,2354.5 882.833,2354.5 886.5,2354.5C 888.009,2368.57 890.009,2382.57 892.5,2396.5C 895.817,2382.57 898.817,2368.57 901.5,2354.5C 904.5,2354.5 907.5,2354.5 910.5,2354.5C 906.337,2373.82 902.171,2393.15 898,2412.5C 894.333,2413.83 890.667,2413.83 887,2412.5C 885.093,2398.15 883.093,2383.82 881,2369.5C 878.785,2384.17 876.619,2398.84 874.5,2413.5C 870.833,2413.5 867.167,2413.5 863.5,2413.5C 859.501,2393.84 855.501,2374.17 851.5,2354.5 Z"/></g>
<g><path style="opacity:1" fill="#000000" d="M 944.5,2354.5 C 947.5,2354.5 950.5,2354.5 953.5,2354.5C 956.266,2368.83 959.1,2383.16 962,2397.5C 964.855,2383.35 967.022,2369.02 968.5,2354.5C 972.167,2354.5 975.833,2354.5 979.5,2354.5C 981.097,2368.95 983.263,2383.28 986,2397.5C 988.9,2383.16 991.734,2368.83 994.5,2354.5C 997.5,2354.5 1000.5,2354.5 1003.5,2354.5C 999.341,2374.14 995.341,2393.8 991.5,2413.5C 987.327,2414.04 983.494,2413.38 980,2411.5C 978.093,2397.15 976.093,2382.82 974,2368.5C 972.082,2382.84 970.082,2397.18 968,2411.5C 966.475,2412.72 964.641,2413.39 962.5,2413.5C 960.571,2413.46 958.738,2413.13 957,2412.5C 952.639,2393.19 948.472,2373.86 944.5,2354.5 Z"/></g>
<g><path style="opacity:1" fill="#000000" d="M 1044.5,2402.5 C 1051.15,2402.63 1053.32,2405.97 1051,2412.5C 1042.96,2416.14 1039.96,2413.48 1042,2404.5C 1042.99,2403.93 1043.83,2403.27 1044.5,2402.5 Z"/></g>
<g><path style="opacity:1" fill="#000000" d="M 1501.5,2402.5 C 1506.39,2401.89 1509.06,2404.05 1509.5,2409C 1509.39,2410.9 1508.72,2412.56 1507.5,2414C 1501.96,2415.99 1498.96,2414.15 1498.5,2408.5C 1498.63,2406.05 1499.63,2404.05 1501.5,2402.5 Z"/></g>
</svg>
