<?xml version="1.0" encoding="UTF-8"?>
<!DOCTYPE svg PUBLIC "-//W3C//DTD SVG 1.1//EN" "http://www.w3.org/Graphics/SVG/1.1/DTD/svg11.dtd">
<svg xmlns="http://www.w3.org/2000/svg" version="1.1" width="34px" height="44px" style="shape-rendering:geometricPrecision; text-rendering:geometricPrecision; image-rendering:optimizeQuality; fill-rule:evenodd; clip-rule:evenodd" xmlns:xlink="http://www.w3.org/1999/xlink">
<g><path style="opacity:1" fill="#6f3d86" d="M 20.5,10.5 C 19.7611,10.369 19.0944,10.5357 18.5,11C 19.9256,13.7114 19.5923,16.2114 17.5,18.5C 19.2255,21.8669 20.8921,25.2003 22.5,28.5C 19.8806,28.7683 17.3806,28.435 15,27.5C 13.1667,24.3333 11.3333,21.1667 9.5,18C 15.2129,13.4739 14.2129,10.8073 6.5,10C 11.3522,9.18492 16.0189,9.35159 20.5,10.5 Z"/></g>
<g><path style="opacity:1" fill="#1966b1" d="M 20.5,10.5 C 21.9918,13.3789 21.6585,16.0456 19.5,18.5C 21.1932,21.8864 22.8599,25.2198 24.5,28.5C 23.8333,28.5 23.1667,28.5 22.5,28.5C 20.8921,25.2003 19.2255,21.8669 17.5,18.5C 19.5923,16.2114 19.9256,13.7114 18.5,11C 19.0944,10.5357 19.7611,10.369 20.5,10.5 Z"/></g>
<g><path style="opacity:1" fill="#e22b26" d="M 20.5,10.5 C 21.4959,10.4142 22.3292,10.7476 23,11.5C 23.839,14.1396 23.339,16.4729 21.5,18.5C 22.9131,21.6612 24.5797,24.6612 26.5,27.5C 26.0431,28.2975 25.3764,28.6309 24.5,28.5C 22.8599,25.2198 21.1932,21.8864 19.5,18.5C 21.6585,16.0456 21.9918,13.3789 20.5,10.5 Z"/></g>
</svg>
